<?xml version="1.0" encoding="UTF-8"?>
<svg version="1.1" xmlns="http://www.w3.org/2000/svg" width="230" height="78">
<path d="M0 0 C5.12742897 4.00278064 7.02348051 9.59215463 8.125 15.8125 C9.19041016 16.06773438 9.19041016 16.06773438 10.27734375 16.328125 C11.19644531 16.57046875 12.11554688 16.8128125 13.0625 17.0625 C13.97902344 17.29453125 14.89554687 17.5265625 15.83984375 17.765625 C18.125 18.8125 18.125 18.8125 19.08203125 20.71484375 C19.15203777 24.13243475 17.43837057 25.51424312 15.203125 27.9375 C9.60342498 32.98986092 3.33306653 36.63947994 -3.875 38.8125 C-2.98296875 38.91046875 -2.0909375 39.0084375 -1.171875 39.109375 C-0.00140625 39.25890625 1.1690625 39.4084375 2.375 39.5625 C3.53515625 39.70171875 4.6953125 39.8409375 5.890625 39.984375 C9.57934228 40.92882918 10.62365514 42.03949269 13.125 44.8125 C15.72893814 46.42615257 18.38849828 47.88235383 21.078125 49.34765625 C21.75359375 49.83105469 22.4290625 50.31445312 23.125 50.8125 C23.125 51.8025 23.125 52.7925 23.125 53.8125 C-1.65126887 55.21277356 -1.65126887 55.21277356 -12.875 53.8125 C-12.875 52.8225 -12.875 51.8325 -12.875 50.8125 C-9.04884231 48.15354815 -4.95942261 46.06744165 -0.875 43.8125 C-7.145 43.4825 -13.415 43.1525 -19.875 42.8125 C-18.555 48.7525 -17.235 54.6925 -15.875 60.8125 C-8.945 61.1425 -2.015 61.4725 5.125 61.8125 C5.125 62.4725 5.125 63.1325 5.125 63.8125 C-13.025 63.8125 -31.175 63.8125 -49.875 63.8125 C-49.875 63.1525 -49.875 62.4925 -49.875 61.8125 C-42.615 61.4825 -35.355 61.1525 -27.875 60.8125 C-27.215 57.5125 -26.555 54.2125 -25.875 50.8125 C-25.215 48.1725 -24.555 45.5325 -23.875 42.8125 C-29.815 43.1425 -35.755 43.4725 -41.875 43.8125 C-40.06 44.905625 -38.245 45.99875 -36.375 47.125 C-33.28125 48.98828125 -33.28125 48.98828125 -30.875 50.8125 C-30.875 51.8025 -30.875 52.7925 -30.875 53.8125 C-55.65126887 55.21277356 -55.65126887 55.21277356 -66.875 53.8125 C-66.78515625 52.07421875 -66.78515625 52.07421875 -65.875 49.8125 C-63.69765284 48.25394738 -61.63198179 46.92772265 -59.3125 45.625 C-57.15012425 44.37738844 -55.00877662 43.1093851 -52.875 41.8125 C-52.875 41.4825 -52.875 41.1525 -52.875 40.8125 C-52.16472656 40.75191406 -51.45445313 40.69132812 -50.72265625 40.62890625 C-49.80355469 40.54511719 -48.88445313 40.46132813 -47.9375 40.375 C-47.02097656 40.29378906 -46.10445312 40.21257813 -45.16015625 40.12890625 C-42.91340268 40.05205024 -42.91340268 40.05205024 -41.875 38.8125 C-42.67164062 38.43738281 -43.46828125 38.06226563 -44.2890625 37.67578125 C-53.35084708 33.29922592 -59.23254726 29.91884961 -63.875 20.8125 C-61.30353943 18.24103943 -59.2699583 18.01132003 -55.75 17.1875 C-54.10644531 16.79691406 -54.10644531 16.79691406 -52.4296875 16.3984375 C-51.58664063 16.20507812 -50.74359375 16.01171875 -49.875 15.8125 C-50.06320313 15.22339844 -50.25140625 14.63429688 -50.4453125 14.02734375 C-51.12870366 10.50477295 -49.61235602 7.79462835 -47.875 4.8125 C-45.4375 1.875 -45.4375 1.875 -42.875 -0.1875 C-41.555 -0.1875 -40.235 -0.1875 -38.875 -0.1875 C-38.215 -1.1775 -37.555 -2.1675 -36.875 -3.1875 C-25.28211753 -7.50415238 -10.57172399 -6.58785326 0 0 Z M-22.875 0.8125 C-22.875 3.7825 -22.875 6.7525 -22.875 9.8125 C-21.885 9.8125 -20.895 9.8125 -19.875 9.8125 C-19.875 6.8425 -19.875 3.8725 -19.875 0.8125 C-20.865 0.8125 -21.855 0.8125 -22.875 0.8125 Z M-5.875 4.8125 C-5.875 6.4625 -5.875 8.1125 -5.875 9.8125 C-4.555 9.4825 -3.235 9.1525 -1.875 8.8125 C-3.195 7.4925 -4.515 6.1725 -5.875 4.8125 Z M-38.875 12.8125 C-39.90513277 14.46071244 -40.90614628 16.12753702 -41.875 17.8125 C-40.555 18.8025 -39.235 19.7925 -37.875 20.8125 C-37.875 18.1725 -37.875 15.5325 -37.875 12.8125 C-38.205 12.8125 -38.535 12.8125 -38.875 12.8125 Z M-23.875 15.8125 C-23.875 19.4425 -23.875 23.0725 -23.875 26.8125 C-22.555 26.8125 -21.235 26.8125 -19.875 26.8125 C-19.875 23.5125 -19.875 20.2125 -19.875 16.8125 C-21.195 16.4825 -22.515 16.1525 -23.875 15.8125 Z M-5.875 15.8125 C-5.875 17.4625 -5.875 19.1125 -5.875 20.8125 C-3.8350281 19.44926257 -3.8350281 19.44926257 -1.875 17.8125 C-1.875 17.1525 -1.875 16.4925 -1.875 15.8125 C-3.195 15.8125 -4.515 15.8125 -5.875 15.8125 Z M-51.875 19.8125 C-51.545 21.1325 -51.215 22.4525 -50.875 23.8125 C-50.235625 23.915625 -49.59625 24.01875 -48.9375 24.125 C-48.256875 24.351875 -47.57625 24.57875 -46.875 24.8125 C-46.545 25.8025 -46.215 26.7925 -45.875 27.8125 C-44.03037813 28.54136396 -44.03037813 28.54136396 -41.875 28.875 C-39.6875 29.28515625 -39.6875 29.28515625 -37.875 29.8125 C-37.545 30.4725 -37.215 31.1325 -36.875 31.8125 C-35.555 31.1525 -34.235 30.4925 -32.875 29.8125 C-33.70644531 29.42578125 -34.53789063 29.0390625 -35.39453125 28.640625 C-37.02455078 27.85945313 -37.02455078 27.85945313 -38.6875 27.0625 C-39.76644531 26.55203125 -40.84539063 26.0415625 -41.95703125 25.515625 C-44.875 23.8125 -44.875 23.8125 -46.51171875 21.609375 C-46.96160156 21.01640625 -47.41148438 20.4234375 -47.875 19.8125 C-49.195 19.8125 -50.515 19.8125 -51.875 19.8125 Z M1.6875 22.0625 C0.841875 22.97 -0.00375 23.8775 -0.875 24.8125 C-2.52364545 26.16805293 -4.18503995 27.50881653 -5.875 28.8125 C-1.94446815 28.24700607 0.65907537 27.09867442 3.9375 24.875 C5.12279297 24.08802734 5.12279297 24.08802734 6.33203125 23.28515625 C6.92371094 22.79917969 7.51539062 22.31320313 8.125 21.8125 C8.125 21.1525 8.125 20.4925 8.125 19.8125 C4.06200003 19.36031326 4.06200003 19.36031326 1.6875 22.0625 Z M10.125 20.8125 C10.785 22.1325 11.445 23.4525 12.125 24.8125 C12.785 23.8225 13.445 22.8325 14.125 21.8125 C12.805 21.4825 11.485 21.1525 10.125 20.8125 Z M-56.875 22.8125 C-56.215 24.1325 -55.555 25.4525 -54.875 26.8125 C-53.885 26.8125 -52.895 26.8125 -51.875 26.8125 C-53.525 25.4925 -55.175 24.1725 -56.875 22.8125 Z M9.125 24.8125 C9.455 25.4725 9.785 26.1325 10.125 26.8125 C10.455 26.1525 10.785 25.4925 11.125 24.8125 C10.465 24.8125 9.805 24.8125 9.125 24.8125 Z M7.125 26.8125 C6.795 27.4725 6.465 28.1325 6.125 28.8125 C7.115 28.4825 8.105 28.1525 9.125 27.8125 C8.465 27.4825 7.805 27.1525 7.125 26.8125 Z M4.125 28.8125 C3.135 29.8025 2.145 30.7925 1.125 31.8125 C2.775 31.1525 4.425 30.4925 6.125 29.8125 C5.465 29.4825 4.805 29.1525 4.125 28.8125 Z M-31.875 30.8125 C-31.875 31.1425 -31.875 31.4725 -31.875 31.8125 C-29.895 31.8125 -27.915 31.8125 -25.875 31.8125 C-25.875 31.4825 -25.875 31.1525 -25.875 30.8125 C-27.855 30.8125 -29.835 30.8125 -31.875 30.8125 Z M-17.875 30.8125 C-16.885 31.1425 -15.895 31.4725 -14.875 31.8125 C-14.545 32.8025 -14.215 33.7925 -13.875 34.8125 C-13.545 33.4925 -13.215 32.1725 -12.875 30.8125 C-14.525 30.8125 -16.175 30.8125 -17.875 30.8125 Z M-38.875 32.8125 C-39.535 33.4725 -40.195 34.1325 -40.875 34.8125 C-39.885 34.8125 -38.895 34.8125 -37.875 34.8125 C-38.205 34.1525 -38.535 33.4925 -38.875 32.8125 Z M-9.875 35.8125 C-6.41 35.3175 -6.41 35.3175 -2.875 34.8125 C-2.875 34.4825 -2.875 34.1525 -2.875 33.8125 C-6.82957848 33.46426193 -6.82957848 33.46426193 -9.875 35.8125 Z M-31.875 34.8125 C-32.535 35.4725 -33.195 36.1325 -33.875 36.8125 C-32.555 36.4825 -31.235 36.1525 -29.875 35.8125 C-30.535 35.4825 -31.195 35.1525 -31.875 34.8125 Z M-12.875 34.8125 C-13.865 35.4725 -14.855 36.1325 -15.875 36.8125 C-13.895 36.8125 -11.915 36.8125 -9.875 36.8125 C-10.865 36.1525 -11.855 35.4925 -12.875 34.8125 Z M-23.0625 36.1875 C-24.9496875 36.496875 -24.9496875 36.496875 -26.875 36.8125 C-26.875 37.1425 -26.875 37.4725 -26.875 37.8125 C-23.245 37.8125 -19.615 37.8125 -15.875 37.8125 C-19.12426122 35.64632585 -19.4735242 35.59914331 -23.0625 36.1875 Z M-47.875 44.8125 C-47.875 46.7925 -47.875 48.7725 -47.875 50.8125 C-44.575 50.8125 -41.275 50.8125 -37.875 50.8125 C-41.07490508 48.06972422 -43.87999382 46.1822164 -47.875 44.8125 Z M-2 47.25 C-2.72445312 47.70246094 -3.44890625 48.15492187 -4.1953125 48.62109375 C-4.74960938 49.01425781 -5.30390625 49.40742187 -5.875 49.8125 C-5.875 50.1425 -5.875 50.4725 -5.875 50.8125 C-2.575 50.8125 0.725 50.8125 4.125 50.8125 C4.125 48.8325 4.125 46.8525 4.125 44.8125 C1.46451455 44.8125 0.23603647 45.83544646 -2 47.25 Z M7.125 44.8125 C7.125 46.7925 7.125 48.7725 7.125 50.8125 C10.095 50.8125 13.065 50.8125 16.125 50.8125 C13.19675348 47.88425348 10.8270007 46.54010033 7.125 44.8125 Z M-56.4375 47.3125 C-57.26378906 47.7765625 -58.09007812 48.240625 -58.94140625 48.71875 C-59.57949219 49.0796875 -60.21757813 49.440625 -60.875 49.8125 C-60.875 50.1425 -60.875 50.4725 -60.875 50.8125 C-57.575 50.8125 -54.275 50.8125 -50.875 50.8125 C-50.875 48.8325 -50.875 46.8525 -50.875 44.8125 C-52.8717878 44.8125 -54.75077422 46.36223196 -56.4375 47.3125 Z " fill="#FFFFFF" transform="translate(71.875,10.1875)"/>
<path d="M0 0 C2.64 0 5.28 0 8 0 C10 2 10 2 10.1875 4.4375 C10 7 10 7 9 10 C9.66 11.32 10.32 12.64 11 14 C11.33 9.38 11.66 4.76 12 0 C16.62 0 21.24 0 26 0 C26.99 2.31 27.98 4.62 29 7 C30.54571278 4.68143083 31.79618552 2.49361571 33 0 C33.99 0 34.98 0 36 0 C35.54548816 1.73017508 35.08621143 3.45909877 34.625 5.1875 C34.24214844 6.63189453 34.24214844 6.63189453 33.8515625 8.10546875 C33.05233704 10.82210207 32.0968638 13.39137175 31 16 C30.01 16 29.02 16 28 16 C27.32739649 14.23141309 26.66211605 12.46003984 26 10.6875 C25.62875 9.70136719 25.2575 8.71523438 24.875 7.69921875 C24 5 24 5 24 2 C21.36 2 18.72 2 16 2 C16 3.32 16 4.64 16 6 C17.65 6 19.3 6 21 6 C21 6.66 21 7.32 21 8 C19.35 8 17.7 8 16 8 C16 9.98 16 11.96 16 14 C18.31 14 20.62 14 23 14 C23 14.66 23 15.32 23 16 C20.58063683 16.16249454 18.17218141 16.28097817 15.75 16.375 C15.06808594 16.42527344 14.38617188 16.47554687 13.68359375 16.52734375 C11.671875 16.5859375 11.671875 16.5859375 8 16 C5.515625 12.9765625 5.515625 12.9765625 4 10 C3.67 11.98 3.34 13.96 3 16 C2.01 16 1.02 16 0 16 C0 10.72 0 5.44 0 0 Z M3 2 C3 3.65 3 5.3 3 7 C4.32 6.67 5.64 6.34 7 6 C7 5.01 7 4.02 7 3 C5.68 2.67 4.36 2.34 3 2 Z " fill="#FFFFFF" transform="translate(112,31)"/>
<path d="M0 0 C0.99 0.33 1.98 0.66 3 1 C4.1875 4.0625 4.1875 4.0625 5 7 C6.20628008 4.66785852 7.1654738 2.50357861 8 0 C8.99 0 9.98 0 11 0 C11.66 3.63 12.32 7.26 13 11 C14.58971965 8.61542052 15.86741593 6.3695876 17.125 3.8125 C17.47820312 3.09707031 17.83140625 2.38164062 18.1953125 1.64453125 C18.46085937 1.10183594 18.72640625 0.55914062 19 0 C19.66 0 20.32 0 21 0 C21.8394882 2.10171867 22.67139656 4.20646625 23.5 6.3125 C23.9640625 7.48425781 24.428125 8.65601563 24.90625 9.86328125 C26 13 26 13 26 16 C24.68 15.67 23.36 15.34 22 15 C22 14.34 22 13.68 22 13 C20.35 13 18.7 13 17 13 C16.67 13.99 16.34 14.98 16 16 C14.02 16 12.04 16 10 16 C9.67 14.35 9.34 12.7 9 11 C8.54625 11.825 8.0925 12.65 7.625 13.5 C7.08875 14.325 6.5525 15.15 6 16 C5.34 16 4.68 16 4 16 C3.67 13.69 3.34 11.38 3 9 C2.34 9 1.68 9 1 9 C1 10.98 1 12.96 1 15 C-0.32 15.33 -1.64 15.66 -3 16 C-2.01 10.72 -1.02 5.44 0 0 Z M19 5 C18.67 6.98 18.34 8.96 18 11 C18.99 11 19.98 11 21 11 C20.67 9.02 20.34 7.04 20 5 C19.67 5 19.34 5 19 5 Z " fill="#FFFFFF" transform="translate(113,11)"/>
<path d="M0 0 C0.99 0 1.98 0 3 0 C3 4.29 3 8.58 3 13 C4.32 13 5.64 13 7 13 C7.33 8.71 7.66 4.42 8 0 C13.94 0 19.88 0 26 0 C26 0.66 26 1.32 26 2 C24.35 2 22.7 2 21 2 C21 6.62 21 11.24 21 16 C19.68 16 18.36 16 17 16 C17 11.38 17 6.76 17 2 C15.35 2 13.7 2 12 2 C12.01160156 2.68707031 12.02320313 3.37414063 12.03515625 4.08203125 C12.04869141 5.43361328 12.04869141 5.43361328 12.0625 6.8125 C12.07410156 7.70582031 12.08570313 8.59914063 12.09765625 9.51953125 C12 12 12 12 11 15 C7.98675805 16.50662097 5.31713623 16.17770373 2 16 C0 14 0 14 -0.1953125 10.7421875 C-0.17210938 9.46601562 -0.14890625 8.18984375 -0.125 6.875 C-0.10695313 5.59367187 -0.08890625 4.31234375 -0.0703125 2.9921875 C-0.04710938 2.00476562 -0.02390625 1.01734375 0 0 Z " fill="#FFFFFF" transform="translate(125,51)"/>
<path d="M0 0 C5.61 0 11.22 0 17 0 C17.66 1.32 18.32 2.64 19 4 C19.66 4.33 20.32 4.66 21 5 C21.66 3.35 22.32 1.7 23 0 C23.99 0 24.98 0 26 0 C24.17708333 4.6875 24.17708333 4.6875 22.9375 6.875 C21.62876356 9.84146927 21.36953746 12.79734198 21 16 C20.01 16 19.02 16 18 16 C17.80083984 14.98679687 17.80083984 14.98679687 17.59765625 13.953125 C17.42105469 13.06109375 17.24445313 12.1690625 17.0625 11.25 C16.88847656 10.36828125 16.71445313 9.4865625 16.53515625 8.578125 C16.07631512 6.36764947 15.56663926 4.18487932 15 2 C13.02 2 11.04 2 9 2 C9 6.62 9 11.24 9 16 C7.68 16 6.36 16 5 16 C5 11.38 5 6.76 5 2 C3.35 2 1.7 2 0 2 C0 1.34 0 0.68 0 0 Z " fill="#FFFFFF" transform="translate(198,51)"/>
<path d="M0 0 C0.99 0 1.98 0 3 0 C3 4.62 3 9.24 3 14 C5.64 14 8.28 14 11 14 C11.19335938 13.32453125 11.38671875 12.6490625 11.5859375 11.953125 C11.84632813 11.06109375 12.10671875 10.1690625 12.375 9.25 C12.63023437 8.36828125 12.88546875 7.4865625 13.1484375 6.578125 C13.9209934 4.23919428 14.83625676 2.16557438 16 0 C16.66 0 17.32 0 18 0 C19.98 5.28 21.96 10.56 24 16 C22.68 16 21.36 16 20 16 C19.67 15.34 19.34 14.68 19 14 C16.47266765 13.34444881 16.47266765 13.34444881 14 13 C13.67 13.99 13.34 14.98 13 16 C8.71 16 4.42 16 0 16 C0 10.72 0 5.44 0 0 Z M16 6 C15.67 7.65 15.34 9.3 15 11 C15.99 11 16.98 11 18 11 C17.67 9.35 17.34 7.7 17 6 C16.67 6 16.34 6 16 6 Z " fill="#FFFFFF" transform="translate(140,11)"/>
<path d="M0 0 C1.875 0.125 1.875 0.125 4 1 C5.25 4.0625 5.25 4.0625 6 7 C6.99 4.69 7.98 2.38 9 0 C9.66 0 10.32 0 11 0 C11.66 1.98 12.32 3.96 13 6 C13.99 4.02 14.98 2.04 16 0 C16.99 0 17.98 0 19 0 C17.84941444 5.39795989 16.57578241 10.70987333 15 16 C14.01 15.67 13.02 15.34 12 15 C10.8125 11.9375 10.8125 11.9375 10 9 C9.01 11.31 8.02 13.62 7 16 C6.01 15.67 5.02 15.34 4 15 C2.83203125 12.12890625 2.83203125 12.12890625 1.8125 8.5625 C1.29623047 6.80099609 1.29623047 6.80099609 0.76953125 5.00390625 C0 2 0 2 0 0 Z " fill="#FFFFFF" transform="translate(161,11)"/>
<path d="M0 0 C0.66 0 1.32 0 2 0 C2 22.77 2 45.54 2 69 C1.34 69 0.68 69 0 69 C0 46.23 0 23.46 0 0 Z " fill="#FFFFFF" transform="translate(98,5)"/>
<path d="M0 0 C4.17799643 2.08899822 4.92391901 3.05544612 7 7 C7.33 4.69 7.66 2.38 8 0 C9.32 0 10.64 0 12 0 C12 5.28 12 10.56 12 16 C7.61364256 13.80682128 6.48743095 12.08649371 4 8 C3.67 10.64 3.34 13.28 3 16 C2.01 16 1.02 16 0 16 C0 10.72 0 5.44 0 0 Z " fill="#FFFFFF" transform="translate(161,31)"/>
<path d="M0 0 C3.625 0.25 3.625 0.25 5.328125 1.453125 C7.03724501 3.82118284 7.02588634 5.35072958 7 8.25 C7.00773438 9.11625 7.01546875 9.9825 7.0234375 10.875 C6.54921789 13.70172083 5.93980836 14.59656546 3.625 16.25 C-2.2619258 16.88074205 -2.2619258 16.88074205 -5.25 15.1875 C-6.9905744 12.18984409 -7.25621951 9.69463409 -7.375 6.25 C-4.54695326 0.33681135 -4.54695326 0.33681135 0 0 Z M-1.375 2.25 C-3.55831689 4.01136355 -3.55831689 4.01136355 -3.5703125 6.1953125 C-3.53550781 7.27425781 -3.53550781 7.27425781 -3.5 8.375 C-3.45875 9.65375 -3.4175 10.9325 -3.375 12.25 C-1.395 13.24 -1.395 13.24 0.625 14.25 C1.615 13.59 2.605 12.93 3.625 12.25 C3.98797936 10.27252878 3.98797936 10.27252878 3.8125 8.125 C3.750625 6.84625 3.68875 5.5675 3.625 4.25 C1.15 3.26 1.15 3.26 -1.375 2.25 Z " fill="#FFFFFF" transform="translate(172.375,50.75)"/>
<path d="M0 0 C8 0 8 0 10 1 C10.75 2.75 10.75 2.75 11 5 C10.62875 5.78375 10.2575 6.5675 9.875 7.375 C8.6341721 10.14115343 8.6341721 10.14115343 10.375 13.3125 C10.91125 14.199375 11.4475 15.08625 12 16 C10.68 16 9.36 16 8 16 C5 11.92857143 5 11.92857143 5 9 C4.34 9 3.68 9 3 9 C3 11.31 3 13.62 3 16 C2.01 16 1.02 16 0 16 C0 10.72 0 5.44 0 0 Z M3 2 C3 3.65 3 5.3 3 7 C4.32 6.67 5.64 6.34 7 6 C6.67 4.68 6.34 3.36 6 2 C5.01 2 4.02 2 3 2 Z " fill="#FFFFFF" transform="translate(181,51)"/>
<path d="M0 0 C0.99 0 1.98 0 3 0 C3 1.98 3 3.96 3 6 C4.98 6 6.96 6 9 6 C9 4.02 9 2.04 9 0 C9.99 0 10.98 0 12 0 C12 5.28 12 10.56 12 16 C11.01 16 10.02 16 9 16 C9 13.36 9 10.72 9 8 C7.02 8 5.04 8 3 8 C3 10.64 3 13.28 3 16 C2.01 16 1.02 16 0 16 C0 10.72 0 5.44 0 0 Z " fill="#FFFFFF" transform="translate(152,51)"/>
<path d="M0 0 C0.99 0 1.98 0 3 0 C3.33 3.96 3.66 7.92 4 12 C5.32 12 6.64 12 8 12 C8.33 8.04 8.66 4.08 9 0 C9.99 0 10.98 0 12 0 C12.05402274 2.10388569 12.09280256 4.20816714 12.125 6.3125 C12.14820313 7.48425781 12.17140625 8.65601563 12.1953125 9.86328125 C12 13 12 13 10 16 C8.125 16.36328125 8.125 16.36328125 6 16.3125 C5.29875 16.30863281 4.5975 16.30476563 3.875 16.30078125 C2 16 2 16 0 14 C-0.1953125 10.7421875 -0.1953125 10.7421875 -0.125 6.875 C-0.10695312 5.59367187 -0.08890625 4.31234375 -0.0703125 2.9921875 C-0.04710937 2.00476562 -0.02390625 1.01734375 0 0 Z " fill="#FFFFFF" transform="translate(175,31)"/>
<path d="M0 0 C0.99 0.33 1.98 0.66 3 1 C4.04004769 3.5342007 4.89978397 5.95185202 5.6875 8.5625 C5.91244141 9.27341797 6.13738281 9.98433594 6.36914062 10.71679688 C6.92358017 12.47448819 7.46320189 14.23684098 8 16 C6.68 16 5.36 16 4 16 C4 15.01 4 14.02 4 13 C2.02 13 0.04 13 -2 13 C-2 13.99 -2 14.98 -2 16 C-3.32 15.67 -4.64 15.34 -6 15 C-4.02 10.05 -2.04 5.1 0 0 Z M1 6 C0.34 7.65 -0.32 9.3 -1 11 C0.32 10.67 1.64 10.34 3 10 C2.34 8.68 1.68 7.36 1 6 Z " fill="#FFFFFF" transform="translate(116,51)"/>
<path d="M0 0 C3.63 0 7.26 0 11 0 C11 0.66 11 1.32 11 2 C8.36 2 5.72 2 3 2 C3 3.32 3 4.64 3 6 C4.65 6 6.3 6 8 6 C8 6.66 8 7.32 8 8 C6.35 8 4.7 8 3 8 C3 9.98 3 11.96 3 14 C5.64 14 8.28 14 11 14 C11 14.66 11 15.32 11 16 C7.37 16 3.74 16 0 16 C0 10.72 0 5.44 0 0 Z " fill="#FFFFFF" transform="translate(189,31)"/>
<path d="M0 0 C3.63 0 7.26 0 11 0 C11 0.66 11 1.32 11 2 C8.36 2 5.72 2 3 2 C3 3.32 3 4.64 3 6 C4.65 6 6.3 6 8 6 C8 6.66 8 7.32 8 8 C6.35 8 4.7 8 3 8 C3 9.98 3 11.96 3 14 C5.64 14 8.28 14 11 14 C11 14.66 11 15.32 11 16 C7.37 16 3.74 16 0 16 C0 10.72 0 5.44 0 0 Z " fill="#FFFFFF" transform="translate(149,31)"/>
<path d="M0 0 C1.32 0 2.64 0 4 0 C4 5.28 4 10.56 4 16 C2.68 16 1.36 16 0 16 C0 10.72 0 5.44 0 0 Z " fill="#FFFFFF" transform="translate(181,11)"/>
<path d="M0 0 C0.99 0 1.98 0 3 0 C3 5.28 3 10.56 3 16 C2.01 16 1.02 16 0 16 C0 10.72 0 5.44 0 0 Z " fill="#FFFFFF" transform="translate(194,51)"/>
</svg>
